<svg id="Layer_1" width="100%" height="100%" viewBox="0 0 350 350" fill="none" xmlns="http://www.w3.org/2000/svg">
<path d="M114.627 213.5C116.013 212.181 116.956 213.689 117.887 213.001C114.993 209.918 111.234 210.262 107.663 210.783C105.789 211.027 105.091 212.291 106.033 214.365C108.052 218.801 112.376 221.307 114.827 225.332C116.18 227.55 119.373 228.847 118.508 232.318C118.442 232.617 119.262 233.183 119.728 233.571C122.328 235.836 123.962 239.01 124.297 242.442C124.563 244.117 125.228 245.015 126.892 244.804C129.93 244.416 133.412 244.66 135.851 243.218C137.981 241.954 138.191 243.218 138.712 244.061C139.988 246.19 141.041 247.632 143.458 245.103C144.057 244.482 145.854 244.804 147.062 244.993C154.248 246.101 161.567 245.458 168.763 246.767C169.714 247.006 170.717 246.923 171.616 246.532C172.514 246.141 173.258 245.463 173.731 244.604C174.751 242.83 178.843 243.983 179.752 246.368C180.861 249.195 181.538 252.189 182.347 255.128C182.591 256.026 182.425 257.057 181.394 257.201C181.041 257.175 180.702 257.06 180.407 256.866C180.112 256.672 179.871 256.406 179.708 256.093C179.497 254.518 178.289 253.564 177.734 252.245C177.625 251.845 177.423 251.478 177.143 251.172C176.864 250.867 176.516 250.632 176.128 250.488C175.74 250.344 175.323 250.295 174.912 250.343C174.501 250.392 174.108 250.539 173.764 250.77C168.486 253.952 162.576 251.979 157.042 253.076C155.933 253.298 154.825 253.154 154.259 254.296C153.616 255.682 152.751 255.682 151.542 255.15C150.334 254.618 149.269 254.673 149.058 256.259C148.848 257.845 149.979 258.122 151.198 258.133C153.971 258.133 156.743 258.133 159.515 258.133C160.214 258.133 161.001 257.889 161.522 258.643C158.661 259.641 163.629 261.083 161.19 262.635C159.027 264.01 156.931 265.174 154.425 265.174C149.247 265.174 145.055 267.281 141.196 270.541C138.646 272.693 139.178 275.11 141.008 276.784C146.829 282.118 153.693 285.589 161.799 284.547C167.344 283.87 172.744 282.484 176.747 277.627C178.852 275.2 181.769 273.623 184.953 273.192C187.142 272.826 189.218 271.963 191.021 270.669C192.824 269.375 194.307 267.685 195.354 265.729C199.788 257.836 203.446 249.533 206.277 240.934C207.175 238.14 206.1 234.935 207.929 232.262C208.284 231.752 207.741 230.588 207.441 230.666C203.383 231.719 201.165 227.494 197.561 227.339C196.352 227.339 196.641 229.224 195.155 228.836C193.558 226.396 196.264 224.611 196.441 222.393C196.796 218.934 199.491 216.416 200.721 213.245C202.939 207.701 199.613 202.688 193.536 203.21C190.065 203.52 186.506 203.454 183.412 205.982C181.826 207.279 179.231 207.324 176.481 207.246C177.346 208.543 178.954 207.745 179.353 208.843C177.779 210.34 175.062 208.067 173.864 210.695C173.709 211.049 172.478 210.794 172.267 210.218C171.158 207.246 167.654 207.568 166.124 205.782C165.311 204.791 164.299 203.983 163.152 203.409C162.006 202.836 160.751 202.511 159.471 202.456C153.416 201.746 153.926 196.479 153.05 192.331C152.857 190.676 152.914 189.002 153.217 187.364C153.86 181.021 149.768 176.352 147.129 171.362C143.414 164.321 137.903 158.388 132.713 152.356C132.025 151.663 131.578 150.766 131.441 149.799C131.303 148.832 131.481 147.847 131.948 146.989C133.057 145.425 135.153 146.357 136.883 147.455C138.967 148.785 140.875 149.872 142.05 152.356C142.495 153.368 143.179 154.257 144.045 154.945C144.911 155.633 145.931 156.099 147.018 156.304C148.309 156.546 149.483 157.21 150.356 158.191C151.229 159.173 151.751 160.416 151.842 161.726C151.842 163.622 154.259 164.321 153.638 166.361C153.472 166.893 154.159 166.638 154.359 166.494C156.188 165.219 157.142 166.494 158.451 167.603C160.589 169.282 162.829 170.827 165.159 172.227C165.827 172.577 166.569 172.76 167.322 172.76C168.075 172.76 168.817 172.577 169.484 172.227C172.256 171.118 173.742 172.139 175.372 174.367C179.342 179.79 183.889 184.669 190.409 187.175C190.985 187.397 191.518 187.73 192.116 187.896C192.555 187.931 192.996 187.901 193.425 187.807C186.583 172.471 176.792 158.788 170.704 143.197C177.158 150.449 181.072 159.309 186.228 167.381C180.207 154.585 174.241 141.766 164.893 130.333C170.149 130.112 172.655 133.427 174.962 136.576C182.015 146.069 186.894 156.67 191.484 167.559C194.423 174.534 197.484 181.486 199.967 188.694C202.185 187.352 201.509 185.19 201.786 183.36C203.948 183.871 203.671 185.922 204.969 187.042C203.205 183.227 204.27 179.28 204.203 175.144C206.632 176.563 205.911 179.457 207.419 181.087C207.497 181.087 207.641 180.999 207.641 180.943C207.633 180.821 207.602 180.7 207.552 180.588C207.397 179.945 207.552 179.402 208.306 178.581C212.575 187.053 216.168 195.47 218.12 204.452C219.085 201.591 217.798 198.586 219.706 195.215C221.413 200.482 222.811 205.117 224.418 209.63C226.026 214.143 228.422 218.623 232.68 221.473C235.43 223.325 234.188 226.596 235.618 228.869C235.318 229.366 234.867 229.754 234.332 229.978C233.342 230.148 232.442 230.657 231.787 231.418C231.131 232.178 230.761 233.144 230.739 234.148C228.654 233.959 228.754 231.497 226.758 231.054C226.793 232.311 227.082 233.548 227.606 234.691C228.129 235.834 228.878 236.86 229.808 237.707C233.223 240.679 235.773 244.593 239.788 246.867C240.752 247.41 241.362 247.975 240.708 249.24C239.876 250.803 238.967 249.029 238.291 249.528C237.437 254.019 242.726 256.359 242.382 261.393C242.194 264.021 241.484 264.276 239.899 264.498C237.891 264.786 238.668 265.529 238.501 267.004C237.925 272.171 244.046 275.953 241.163 281.486C241.199 281.894 241.318 282.289 241.513 282.648C241.709 283.008 241.976 283.323 242.298 283.575C242.621 283.826 242.992 284.009 243.387 284.111C243.783 284.214 244.196 284.234 244.6 284.17C246.995 283.648 249.435 283.338 251.808 282.928C252.54 284.28 250.289 284.779 251.242 286.044C253.76 286.476 256.476 284.003 258.783 286.044C260.014 287.153 259.626 289.06 258.14 290.479C258.838 290.712 259.171 290.801 259.504 290.934C260.712 291.411 263.074 289.891 263.03 291.377C262.952 293.739 260.402 291.666 259.116 292.431C259.36 293.695 260.069 293.75 261.256 293.595C267.665 292.752 274.019 291.377 280.595 292.398C286.627 293.34 292.16 295.935 298.071 297.232C299.401 297.521 299.734 299.328 300.289 300.559C301.397 303.098 302.395 305.715 303.46 308.377C304.391 306.469 303.227 304.695 303.893 302.666C307.219 307.9 310.546 313.089 313.695 318.39C316.39 322.892 319.384 327.261 322.211 331.63C325.372 336.542 327.035 342.153 330.473 346.855C331.681 348.507 331.005 349.805 328.831 349.638C324.806 349.317 320.293 351.202 317.055 347.021C316.883 346.831 316.667 346.684 316.426 346.594C316.186 346.504 315.927 346.472 315.672 346.503C315.417 346.533 315.172 346.624 314.96 346.769C314.747 346.913 314.572 347.106 314.449 347.332C311.344 351.69 306.92 349.383 303.116 349.439C300.588 349.439 301.309 346.744 301.486 345.258C302.44 336.731 299.268 329.49 294.655 322.715C292.619 319.889 290.145 317.407 287.326 315.363C286.8 315.119 286.36 314.722 286.065 314.222C285.77 313.723 285.633 313.147 285.673 312.568C288.49 314.575 291.539 313.866 294.345 313.744C291.56 308.839 287.117 305.088 281.815 303.165C278.188 301.779 274.429 300.426 270.848 298.729C266.49 296.656 261.588 294.97 256.332 296.589C253.981 297.31 251.42 296.589 248.991 295.99C248.37 295.846 246.02 294.061 247.472 297.099C247.159 297.464 246.756 297.74 246.302 297.9C245.849 298.06 245.361 298.097 244.889 298.009C247.018 298.752 248.892 300.226 251.342 300.071C252.03 300.071 252.451 300.581 252.451 301.302C252.451 302.023 252.196 302.743 251.631 302.821C247.428 303.376 250.91 304.717 251.531 305.039C252.784 305.693 254.27 306.259 253.527 307.844C252.784 309.43 251.398 308.033 250.389 307.7C248.282 306.991 246.219 306.115 244.134 305.338C242.316 304.662 239.799 305.405 239.422 306.37C238.801 307.955 240.863 308.887 242.338 309.785C244.434 311.071 246.873 310.894 248.991 311.903C254.946 314.609 260.801 317.647 266.978 319.665C273.154 321.683 278.499 326.141 285.03 327.616C286.66 327.993 286.893 330.233 288.568 330.71C287.692 327.627 285.984 325.853 281.826 322.803C278.965 320.696 275.172 320.075 272.755 317.159C274.263 315.307 275.305 317.758 277.135 317.492C274.762 315.928 272.821 314.675 270.903 313.378C268.985 312.08 267.077 310.727 264.427 310.373C265.702 308.155 267.698 308.565 269.129 308.964C279.857 311.813 289.368 318.071 296.23 326.795C300.754 332.517 300.721 339.492 300.189 346.367C300.089 347.476 299.923 349.284 298.071 349.439C295.853 349.627 295.942 347.665 295.531 346.389C295.202 344.532 294.443 342.778 293.314 341.266C293.502 343.418 293.314 344.759 293.779 345.901C295.032 349.228 293.28 349.661 290.564 349.65C277.002 349.65 263.451 349.505 249.901 349.705C246.441 349.705 245.199 348.441 244.456 345.269C243.824 342.553 244.19 339.836 243.724 337.141C240.519 338.15 240.719 340.69 240.619 343.273C240.542 345.258 241.817 348.352 239.643 348.995C236.993 349.783 236.649 346.367 235.485 344.56C234.964 343.761 234.875 342.63 233.644 342.242C232.768 343.551 233.334 344.793 233.833 346.012C235.008 348.884 233.833 349.849 231.027 349.572C230.532 349.544 230.036 349.544 229.541 349.572H5.00254C4.25958 349.572 3.50554 349.572 2.78476 349.572C1.75349 349.472 0.345205 349.938 0.0347159 348.385C-0.198151 347.276 0.788761 346.733 1.55389 346.068C4.12652 343.85 7.51972 342.076 6.21123 337.673C6.01163 337.008 6.61043 336.476 7.22032 336.298C11.3565 335.101 12.4099 331.32 14.2285 328.148C15.6257 325.697 16.2356 322.781 18.6641 320.929C19.4181 320.353 19.2407 319.355 19.3848 318.512C20.2276 313.544 20.8818 308.887 26.1047 305.704C28.6662 304.13 30.8286 300.903 33.2238 298.463C34.4214 297.255 35.6855 295.99 38.1251 296.512L30.4515 305.826C38.369 301.624 44.9447 295.059 53.8824 292.608C52.0971 292.409 50.5557 293.24 49.0587 293.883C48.2159 294.249 47.2956 294.571 46.7079 293.706C46.1201 292.841 47.0627 292.398 47.3621 291.743C48.9811 288.317 52.9065 288.417 55.4348 286.421C57.3088 285.012 57.3199 285.19 55.4348 283.682C53.9267 282.506 55.213 281.641 56.1556 281.275C58.0407 280.544 58.6062 279.058 58.9833 277.328C59.3561 275.502 60.1455 273.787 61.2897 272.316C64.7495 267.88 66.191 263.167 63.7071 257.767C63.6053 257.409 63.5793 257.034 63.6309 256.665C63.6824 256.297 63.8104 255.943 64.0065 255.627C65.6477 251.38 67.2223 247.099 68.8635 242.841C69.6712 240.781 70.0486 238.577 69.9724 236.365C69.8322 230.535 70.9439 224.742 73.2325 219.377C78.3334 207.179 79.0652 193.74 83.8889 181.475C84.7428 179.324 86.1067 177.35 85.9847 174.822C85.9182 173.636 87.0936 173.502 88.0251 173.292C87.9243 173.067 87.8095 172.848 87.6813 172.638C86.7166 171.24 85.0865 173.979 84.654 172.416C84.5304 172.039 84.5006 171.639 84.5673 171.248C84.6341 170.858 84.7953 170.49 85.037 170.176C85.2786 169.862 85.5934 169.612 85.9538 169.448C86.3142 169.283 86.7093 169.21 87.1047 169.233C87.8255 169.233 87.6702 168.79 87.77 168.291C88.513 164.11 89.3336 160.24 92.2943 156.603C93.8578 154.685 95.0111 151.203 95.621 148.153C96.0202 146.024 97.5393 144.56 98.9476 142.753C101.165 145.592 97.5282 148.031 99.3025 150.227C101.032 147.233 101.099 143.219 103.505 140.247C104.88 138.517 105.934 136.532 108.573 136.333C109.56 136.255 110.536 135.734 111.245 136.765C111.572 137.225 111.748 137.775 111.748 138.34C111.748 138.904 111.572 139.454 111.245 139.914C110.75 140.773 110.206 141.602 109.615 142.398C107.519 145.004 106.921 147.444 110.347 149.695C111.622 147.798 112.565 145.492 114.694 144.427C115.803 143.84 117.677 142.808 118.741 144.427C120.072 146.379 117.921 146.8 116.845 147.588C119.961 149.994 123.909 151.436 125.616 155.572C126.26 157.113 126.57 157.601 124.607 157.424C123.288 157.313 124.13 157.668 124.153 158.388C124.219 160.351 127.291 163.079 123.044 164.509C122.434 164.72 121.658 166.65 123.044 168.102C123.543 168.623 128.056 171.673 122.168 171.773C120.449 171.773 118.575 173.259 116.623 173.724C115.925 173.891 115.514 174.334 115.636 175.044C115.825 175.964 116.546 175.609 117.133 175.543C120.227 175.144 123.299 175.421 126.504 174.844C130.44 174.123 135.907 172.338 139.677 176.774C139.919 177.025 140.215 177.218 140.542 177.339C143.226 174.112 142.904 177.794 143.558 178.725C148.105 185.312 146.951 192.232 144.667 199.251C142.871 204.873 142.294 210.794 139.999 216.339C138.613 219.666 142.161 222.538 144.212 223.214C146.652 224.012 150.123 225.277 152.884 223.214C153.993 222.416 154.647 222.815 155.579 223.114C157.168 223.785 158.832 224.261 160.535 224.534C163.241 224.722 164.439 225.776 163.762 228.481C163.361 229.593 162.567 230.52 161.529 231.086C160.491 231.652 159.281 231.818 158.129 231.553C153.693 230.034 153.316 230.3 153.084 235.001C152.995 236.565 150.866 237.696 150.4 236.997C147.628 233.26 146.175 237.286 144.7 238.106C142.948 239.038 142.416 241.211 139.367 239.847C137.404 238.971 134.31 240.28 131.837 240.956C129.364 241.633 127.224 241.788 125.683 239.914C123.898 237.696 124.075 234.979 125.262 232.529C127.202 228.514 129.387 224.622 131.427 220.664C131.926 219.699 132.669 218.801 132.392 217.57C132.07 216.15 131.926 214.864 129.819 215.94C127.712 217.015 125.384 217.991 124.541 214.177C124.352 213.256 123.011 213.966 122.256 214.177C121.014 214.635 119.685 214.813 118.366 214.696C117.047 214.579 115.77 214.17 114.627 213.5ZM73.8424 310.04C62.7535 315.518 51.5537 320.852 41.2965 327.971C35.8186 331.763 31.1723 336.11 28.0785 342.043C26.9696 344.194 25.8607 346.378 23.4101 348.075C28.4334 346.678 29.4314 341.499 33.3125 339.281C37.0273 337.163 39.3337 333.205 42.6604 330.41C52.2301 322.36 63.9844 317.769 73.8424 310.04ZM63.0418 301.38C69.0298 302.167 74.4523 306.214 80.9836 304.096C86.6279 302.278 92.3497 300.77 95.5544 295.037C96.12 294.039 96.8075 292.897 95.9758 291.987C95.1441 291.078 93.9687 291.743 93.0372 292.453C86.0507 297.864 77.4094 300.696 68.5751 300.47C66.7677 300.448 64.8936 300.071 63.0418 301.38ZM42.9155 320.353C51.6868 314.664 60.3805 308.953 71.0369 307.379C65.6477 307.379 60.7686 309.596 55.5124 310.24C50.2563 310.883 45.5324 314.919 40.8307 318.257C42.8378 317.847 43.6584 318.39 42.9155 320.353Z" fill="#6F767E"/>
<path d="M125.428 138.462C125.274 138.733 125.207 139.045 125.235 139.356C125.263 139.667 125.384 139.962 125.583 140.203C126.692 141.677 125.018 142.21 124.474 142.82C123.365 144.017 123.288 142.387 122.767 141.91C121.946 141.145 121.17 140.402 119.972 141.544C118.442 143.008 117.011 141.467 116.102 140.735C115.193 140.003 117 139.205 117.211 138.362C117.555 136.876 121.946 136.222 118.22 133.727C117.91 133.516 118.675 131.254 119.329 130.167C120.893 127.495 122.234 125.144 120.005 121.95C118.464 119.732 121.114 117.515 122.101 116.007C123.365 114.144 126.26 115.119 127.945 116.883C129.485 118.71 131.444 120.136 133.656 121.041C137.581 122.582 139.999 127.04 142.527 130.733C143.47 132.141 141.662 133.405 141.418 133.35C138.202 132.773 135.685 137.297 131.948 134.203C129.708 132.451 125.628 135.456 125.428 138.462Z" fill="#6F767E"/>
<path d="M235.552 217.182C233.334 216.594 232.635 214.786 231.715 213.511C229.663 210.672 227.213 207.834 226.448 204.385C225.782 201.458 224.662 198.264 226.559 195.237C227.002 194.549 226.98 193.496 228.144 193.451C229.309 193.407 229.53 194.327 229.985 195.026C230.85 196.379 230.14 198.242 232.635 199.284C233.833 199.783 235.419 203.343 235.84 205.937C236.295 208.732 236.771 211.482 237.381 214.287C237.814 216.239 236.217 216.372 235.552 217.182Z" fill="#6F767E"/>
</svg>
