<svg id="Layer_1" width="100%" height="100%" viewBox="0 0 350 350" fill="none" xmlns="http://www.w3.org/2000/svg">
<path d="M103.208 211.932C103.448 211.212 103.688 210.492 103.941 209.759L108.407 212.425C109.393 211.092 109.607 209.759 109.927 205.253C110.252 203.935 110.698 202.65 111.26 201.414C112.246 197.894 109.673 195.321 108.82 192.282C106.007 182.217 109.073 176.605 117.472 169.819C119.349 168.594 121.131 167.231 122.804 165.74C123.497 164.98 123.071 163.234 123.191 161.328C119.018 161.634 115.366 162.287 111.78 162.034C109.564 161.782 107.498 160.791 105.914 159.221C103.354 156.555 101.115 156.408 98.9286 159.115C96.9689 161.528 95.1426 161.208 92.7164 159.661L95.3025 158.195L89.477 156.862L89.8635 159.648C87.3173 159.368 84.6112 164.087 82.5315 158.741C81.7317 161.074 81.1985 162.741 80.5719 164.434H78.9989C78.6789 161.328 78.439 158.208 77.9591 155.102C77.8391 154.329 76.4927 153.622 76.546 152.956C76.7993 150.29 75.1462 147.797 78.4523 145.184C82.4516 142.064 79.0122 133.959 73.3732 131.68L73.4532 131.76L71.1337 129.32L76.2927 126.654C76.0394 122.868 75.4129 118.415 75.5328 113.99C75.7461 105.698 76.2927 97.3926 76.9326 89.1141C77.3725 83.5018 78.3857 77.9428 83.0248 74.0369C89.3703 68.7045 95.5025 62.9856 102.395 58.4531C108.49 54.7108 114.943 51.5849 121.658 49.1214C134.455 43.989 147.266 43.8691 159.891 50.0946C163.517 51.8943 167.303 53.4007 171.089 54.8537C185.153 60.1861 194.938 70.5575 201.883 83.3018C204.469 88.0743 204.189 94.4598 205.029 100.125C205.514 103.041 205.702 105.997 205.589 108.95C205.229 115.163 204.256 121.348 204.029 127.614C204.113 131.592 203.009 135.505 200.857 138.852L201.736 139.758L208.975 136.425C211.095 139.865 209.842 145.664 206.002 149.663C205.616 147.597 205.216 145.477 204.789 143.251C201.483 144.704 200.35 146.45 201.723 149.916C202.176 151.049 200.39 153.182 199.497 154.702C198.356 156.524 196.768 158.025 194.884 159.061C194.884 149.903 195.524 140.678 194.684 131.586C194.004 124.254 191.552 117.096 189.912 109.844C189.547 108.888 189.455 107.849 189.645 106.844C192.418 100.712 189.939 95.7396 186.313 91.0338C184.886 89.1674 183.54 88.3676 181.3 90.7538C179.967 92.0869 177.208 92.5268 175.035 92.7401C169.889 93.26 164.677 93.18 159.557 93.8199C156.582 94.3063 153.688 95.2036 150.959 96.4861C146.573 98.3791 142.827 96.6194 138.961 95.0197C138.334 94.7748 137.657 94.6878 136.988 94.7664C133.616 95.1797 131.109 93.5933 128.297 91.9136C126.284 90.7138 123.177 91.0737 120.565 91.1671C117.935 91.444 115.325 91.8893 112.753 92.5002L115.845 97.086L108.22 106.418L106.674 105.191C105.983 106.179 105.418 107.249 104.994 108.377C104.314 111.31 104.301 111.043 100.795 111.87C99.9697 112.201 99.2355 112.725 98.6535 113.398C98.0715 114.07 97.6585 114.872 97.4488 115.736C97.0756 118.789 95.4892 119.269 92.823 118.655V124.854L97.2089 125.427C98.3953 121.428 99.5818 121.308 102.954 124.548C104.368 125.881 106.287 127.387 108.074 127.507C109.86 127.627 111.82 126.174 113.566 125.481C116.432 126.547 119.671 127.88 123.004 128.987C126.337 130.093 130.07 130.32 132.882 132.053C136.562 134.372 137.908 132.506 139.641 129.28C142.001 136.652 147.186 132.2 151.039 132.413C158.224 132.813 165.463 132.173 172.675 132.32C175.778 132.479 178.85 133.02 181.82 133.933C184.633 134.706 185.566 139.652 183.633 143.024L180.074 141.544C181.327 144.211 186.526 144.557 184.18 148.797C180.567 151.023 176.594 153.049 173.088 155.702C166.903 160.394 161.21 158.368 155.438 155.102C154.262 154.237 152.998 153.5 151.666 152.902C147.24 151.569 145.64 148.263 144.747 144.197C143.414 138.398 139.015 136.825 134.269 140.505C138.868 150.49 138.655 161.128 137.895 172.272C136.095 174.592 133.256 174.525 130.123 173.872C129.488 173.839 128.853 173.955 128.27 174.209C127.687 174.464 127.172 174.85 126.763 175.338C131.069 176.245 135.775 175.205 137.548 181.284C139.881 176.311 148.679 174.712 153.545 177.565C152.919 179.138 152.292 180.724 151.212 183.417L156.745 181.164C155.332 184.017 153.705 186.056 149.933 186.363C148.133 186.496 146.533 189.189 144.08 191.429C148.519 191.429 151.639 191.535 154.745 191.429C157.851 191.322 158.838 189.162 157.305 187.003C156.105 185.336 155.198 184.643 157.305 183.257C157.491 183.137 156.945 181.924 156.731 181.231C155.585 177.511 154.385 173.805 153.292 170.073C153.086 169.067 152.961 168.046 152.919 167.02L154.252 166.007C158.811 169.406 164.17 172.152 167.743 176.391C171.515 180.884 175.848 181.111 180.714 181.297C181.64 181.467 182.538 181.768 183.38 182.19C183.074 183.25 182.625 184.264 182.047 185.203C181.113 186.376 179.66 187.176 178.781 188.389C177.647 189.962 178.101 192.895 178.527 195.761C178.807 197.641 177.901 199.681 177.528 201.64L178.647 202.347L184.22 197.014C188.366 200.614 184.22 204.786 182.793 208.092C179.674 215.384 175.235 222.103 171.329 229.048L175.528 229.275L176.034 230.155L140.281 257.443L184.766 276.933C184.233 277.28 184.006 277.546 183.86 277.506C177.314 275.867 171.395 277.426 165.476 280.372C163.317 281.439 160.384 281.052 157.798 281.132C152.225 281.319 146.733 287.091 147.133 292.597C147.24 294.277 147.52 295.943 147.666 297.623C147.92 300.529 146.613 302.222 143.387 302.795C143.067 301.622 142.761 300.555 142.467 299.476L141.507 299.742C143.28 306.008 144.387 312.593 147.026 318.485C149.758 324.557 151.063 331.174 150.839 337.829C143.174 339.015 148.173 346.4 144.76 350H101.461C102.275 345.441 102.954 341.055 103.861 336.669C104.448 333.923 103.088 334.896 102.368 334.003C100.435 331.67 99.0485 335.442 97.7954 333.629C98.0625 333.077 98.2252 332.481 98.2754 331.87C98.102 329.857 95.1692 327.47 99.1952 326.151C98.5686 325.151 97.9421 324.164 97.4622 323.485C98.4087 323.125 100.022 322.645 101.541 321.938C101.934 321.815 102.294 321.603 102.591 321.318C102.888 321.034 103.116 320.684 103.255 320.296C103.395 319.909 103.442 319.494 103.395 319.085C103.347 318.676 103.206 318.284 102.981 317.939C102.355 316.606 101.941 315.273 102.688 314.273C103.768 313.02 105.354 311.94 105.861 310.487C106.738 307.661 107.445 304.785 107.98 301.875L109.18 302.075L110.38 304.515L111.78 293.743L107.3 296.503L106.807 295.796L108.7 294.73V293.917L105.327 293.757L105.101 291.557L96.3024 293.263L100.302 293.73L100.368 294.33L91.8232 294.943L94.7293 296.729C88.9304 298.862 87.344 301.382 89.397 303.262C88.1653 305.144 86.788 306.927 85.2777 308.594C83.7211 310.082 81.9165 311.286 79.9454 312.153C79.5854 312.3 78.4257 309.487 77.2792 309.061C71.8535 306.954 75.8661 303.275 75.5995 300.342C75.6274 299.978 75.7037 299.619 75.8261 299.276H79.8254L80.2653 294.596L81.3185 296.636C83.758 289.824 83.758 289.824 82.2916 287.091C81.7717 288.318 81.2385 289.597 80.6252 290.851C80.2345 290.829 79.8527 290.724 79.5055 290.544C79.5055 289.304 79.6788 288.078 79.7987 286.825C77.7191 286.638 75.7994 289.011 75.3862 292.557L70.2805 295.663L66.0546 297.249C64.5882 295.65 63.0285 295.423 62.6152 300.329L61.8953 296.329H61.4154L61.0821 299.542L55.6032 300.609L60.269 301.848L57.7761 307.394C56.6163 303.848 56.0564 303.715 54.0168 305.861C50.6307 309.42 47.1647 312.926 43.1921 317.006L45.7516 309.38L48.8177 307.314V304.128L46.1516 304.448L49.6709 300.209L47.9912 299.756L50.0975 296.103L40.1393 294.61L39.4861 299.609L36.4467 296.849L35.8868 292.064L39.3128 291.277C37.3932 291.064 36.3267 291.277 36.1134 290.877C33.034 285.971 31.0077 290.97 28.9547 291.89C26.1152 293.157 23.769 295.49 21.2095 297.369L20.0097 296.463C20.5562 294.17 21.1428 291.89 21.5827 289.584C21.5529 289.33 21.4589 289.088 21.3096 288.88C21.1604 288.673 20.9607 288.507 20.7295 288.398C20.2496 288.278 19.2765 288.504 19.1698 288.811C18.8458 289.857 18.662 290.942 18.6233 292.037C18.6754 292.567 18.8151 293.085 19.0365 293.57H14.6507L14.344 291.01L0 294.89C1.33309 291.93 2.66618 289.064 4.13257 286.091L2.33291 286.185C5.22571 280.092 10.8513 277.013 15.9437 273.854C25.382 268.028 35.3135 263.002 45.0984 257.75C50.0975 255.084 55.2699 252.711 60.2956 250.071C69.6273 245.192 78.8256 240.193 88.1039 235.287C90.5434 233.954 93.4362 233.261 93.7162 229.795C93.7162 229.422 94.796 229.155 96.8489 228.049C95.7425 236.58 95.7691 244.259 93.5562 251.231C91.0767 259.07 89.4503 266.402 93.1429 274.227C101.875 266.442 110.806 258.576 122.751 256.417L98.6086 231.621C96.609 222.116 96.1291 213.931 100.208 206.293L102.675 211.865L100.128 213.865C100.702 218.717 101.288 223.676 101.915 229.088L119.951 227.915C117.473 226.492 114.924 225.197 112.313 224.036C110.353 223.29 104.634 217.477 105.447 216.144C107.247 213.171 104.448 213.065 103.208 211.932ZM144.827 208.346C147.226 210.838 144.32 211.158 142.454 211.905C139.374 213.118 135.988 213.851 133.322 215.651C131.989 216.557 131.576 219.317 131.363 221.303C131.296 221.89 133.282 223.25 134.389 223.316C139.055 223.609 143.88 224.223 148.399 223.383C151.986 222.716 155.065 219.317 158.664 218.61C161.944 217.957 162.064 215.504 163.29 213.731C164.368 211.974 165.185 210.07 165.716 208.079C165.945 207.038 166.039 205.971 165.996 204.906C170.435 205.16 174.288 201.933 174.115 197.654C173.798 196.002 172.962 194.493 171.729 193.348C171.489 193.082 169.209 194.002 168.556 194.881C166.914 197.272 165.397 199.746 164.01 202.293C163.303 201.64 162.424 200.867 161.597 200.027C158.411 196.814 156.691 196.788 153.492 199.92C150.626 202.747 147.72 205.533 144.827 208.346ZM91.5033 137.692C95.0359 139.252 97.6488 143.171 101.875 141.691C105.181 140.505 108.114 138.238 111.206 136.439L110.74 135.106C107.46 135.506 103.888 135.212 100.995 136.439C97.5688 137.945 96.0091 137.252 95.0359 133.693L91.5033 137.692ZM124.377 200.347C124.67 201.494 125.604 203.28 125.164 203.72C122.591 206.306 124.99 207.986 126.364 209.052C127.257 209.785 129.616 209.519 130.843 208.852C132.069 208.186 133.935 206.626 131.163 205.066C130.648 204.573 130.347 203.899 130.323 203.187C129.896 199.547 128.483 198.814 124.404 200.334L124.377 200.347ZM86.8241 156.355C88.1572 152.356 89.0237 149.57 89.9302 146.784L88.7837 146.064L84.8645 148.637L86.8241 156.355ZM168.143 138.065V139.958L177.221 140.705L177.288 138.865L168.143 138.065Z" fill="#6F767E"/>
<path d="M72.6667 310.5L68.0809 311.687L72.76 312.66C72.7569 312.831 72.716 313 72.64 313.153C71.5966 314.925 70.2043 316.467 68.5475 317.686L70.4538 314.579L69.9472 314.286L67.6809 315.939L64.2549 310.86L65.2147 310.26L66.0946 311.993L67.0677 310.1L67.8143 311.807C67.9876 311.647 68.2808 311.513 68.2942 311.367C68.2942 310.38 68.2942 309.394 68.2942 308.047L72.6667 310.5Z" fill="#6F767E"/>
<path d="M73.3599 131.68C74.73 133.599 75.5423 135.861 75.707 138.213C75.8717 140.566 75.3823 142.919 74.2931 145.011C74.2931 140.558 69.9339 136.425 73.4532 131.68H73.3599Z" fill="#6F767E"/>
<path d="M89.3436 178.778C88.4105 174.938 87.464 171.086 86.5308 167.246L88.2372 166.873L90.6501 178.404L89.3436 178.778Z" fill="#6F767E"/>
</svg>
