<svg id="Layer_1" width="100%" height="100%" viewBox="0 0 350 350" fill="none" xmlns="http://www.w3.org/2000/svg">
<path d="M68.9374 299.221C68.8388 297.892 68.3237 296.627 67.4652 295.607C66.6067 294.587 65.4486 293.863 64.1553 293.539C59.424 292.27 55.7709 289.01 51.5469 286.803C45.2046 283.467 38.3804 284.089 31.518 285.256C31.2989 284.816 31.2542 284.311 31.3931 283.84C31.532 283.369 31.844 282.969 32.2664 282.719C41.1456 277.074 47.2976 268.499 55.3903 262.03C56.329 261.269 56.1133 260.33 55.9358 259.316C54.7773 252.299 55.7218 245.096 58.6503 238.615C61.3901 232.133 58.5488 226.26 54.2107 221.96C46.811 214.642 41.8914 205.188 40.1435 194.929C40.1574 194.79 40.1574 194.65 40.1435 194.51C37.6066 189.665 38.9512 184.363 38.1647 179.289C37.7715 176.752 37.9745 173.885 35.5644 171.868C33.7124 170.334 35.1712 168.063 34.9936 166.211C34.8541 164.676 36.4396 162.596 34.0422 161.772C31.6449 160.947 32.7738 164.308 31.0106 164.588C29.7422 164.854 29.9451 163.623 29.5265 163.015C27.497 160.059 26.9896 156.178 29.1967 153.983C31.6449 151.611 33.1036 156.368 35.983 156.901C32.3298 145.637 32.7865 134.069 33.4461 122.754C34.0422 112.606 33.129 101.913 38.4184 92.4886C43.2132 83.9265 49.3652 76.6075 58.7771 72.8149C61.6311 71.6606 63.6226 69.39 66.0707 67.741C69.7789 65.4 74.0916 64.1961 78.4762 64.2781C82.4338 64.1894 85.884 62.1218 90.1587 62.7687C98.5305 64.0371 104.923 69.111 111.887 72.9163C117.811 76.227 123.367 80.1846 129.57 83.064C134.168 85.2934 137.955 88.9032 140.402 93.3892C147.074 104.526 147.29 116.602 146.11 128.83C145.704 133.028 145.742 137.265 145.032 141.514C144.449 144.952 142.203 148.186 142.279 151.015C142.381 154.922 140.656 157.573 138.829 161.657C141.265 159.476 142.723 157.712 144.956 156.888C147.708 155.873 149.357 156.672 150.347 159.235C151.26 161.594 149.598 166.198 147.696 166.68C145.793 167.162 145.641 165.526 145.159 164.473C144.677 163.421 144.03 162.685 142.952 163.535C142.229 164.106 140.656 164.296 141.607 166.072C142.027 167.26 142.3 168.495 142.419 169.75C142.749 171.158 142.495 172.376 141.062 172.871C139.628 173.365 138.969 172.465 138.296 171.437C137.802 170.663 137.561 169.217 136.33 169.661C135.1 170.105 135.493 171.602 135.404 172.693C135.404 173.124 135.24 173.733 135.404 173.961C139.045 177.615 135.861 180.684 134.656 183.957C134.034 185.644 133.261 187.42 134.656 189.183C134.96 189.576 135.328 190.451 135.163 190.591C129.379 196.933 134.872 203.998 133.819 210.632C133.73 211.14 134.39 211.901 134.897 212.332C140.06 216.607 141.239 220.767 137.954 226.349C134.986 231.422 131.409 236.116 125.65 239.49C125.929 236.953 127.058 233.706 124.851 233.414C123.485 233.321 122.128 233.685 120.993 234.45C119.858 235.215 119.01 236.337 118.585 237.638C117.684 240.631 115.452 243.168 116.517 246.986C116.91 248.369 114.209 251.261 111.925 252.606C111.265 252.867 110.646 253.221 110.086 253.658C108.323 255.663 103.82 257.641 104.898 259.214C106.89 262.119 108.627 266.267 114.196 265.836C120.12 265.366 126.208 264.77 132.284 266.356C133.958 266.8 136.457 265.239 138.436 265.95C140.136 267.561 135.049 268.613 138.436 270.389C139.134 270.757 137.764 271.15 137.168 271.353C131.142 273.586 126.728 277.987 122.771 282.769C119.904 286.22 116.948 289.112 112.407 290.164C109.15 291.04 106.225 292.858 103.997 295.391C110.505 292.473 116.999 289.543 123.519 286.651C130.335 283.553 137.626 281.632 145.083 280.968C145.654 280.968 146.351 281.07 146.757 280.778C149.928 278.355 153.797 282.046 156.905 279.598C157.057 279.484 157.958 279.991 158.173 280.397C158.592 281.07 157.907 281.311 157.425 281.564C155.938 282.363 154.379 283.021 152.77 283.53C142.711 286.372 132.347 288.249 122.644 292.169C115.198 295.175 107.6 298.321 101.08 302.824C97.5328 305.246 94.6013 308.464 92.5199 312.222C90.4386 315.979 89.2651 320.172 89.0932 324.463C88.7126 330.133 88.3448 336.044 85.0087 341.778C84.3872 338.911 79.7954 336.704 85.1863 334.281C85.8079 334.002 86.1377 332.112 85.922 331.11C84.7677 325.783 87.9515 321.039 87.7993 315.889C87.7359 313.923 88.8648 312.743 90.6153 311.36C89.7908 311.436 89.182 311.36 88.941 311.551C85.4146 315.166 81.9137 316.231 78.2352 311.703C77.8673 311.246 76.6623 310.79 76.4086 311.538C76.0154 312.667 76.1296 313.885 74.4045 312.971C73.136 312.299 73.618 311.373 73.9224 310.434C74.4044 308.887 73.4785 308.062 72.2608 307.403C65.9185 303.953 59.183 301.39 52.8788 297.826C50.2404 296.316 46.5365 296.367 43.3781 296.139C39.5727 295.86 36.3001 294.173 33.0655 292.435C31.721 291.712 30.0212 290.621 30.2242 289.01C30.4652 287.12 32.6343 286.473 34.1564 286.334C42.0589 285.395 49.6823 285.509 55.9738 291.687C59.4748 295.035 63.927 297.014 68.9374 299.221ZM103.934 183.957C106.205 184.071 107.232 185.403 108.513 186.798C110.2 188.625 111.811 189.754 114.132 186.506C116.599 182.871 119.591 179.623 123.012 176.866C124.952 175.389 126.422 173.38 127.242 171.083C128.061 168.786 128.196 166.3 127.629 163.928C126.639 158.956 123.329 157.078 118.635 158.854C117.235 159.547 115.951 160.455 114.83 161.543C113.371 162.736 111.824 163.877 109.883 163.674C101.004 162.761 92.2897 161.772 87.3046 152.677C84.5648 147.679 80.9624 147.844 78.4255 152.943C76.3071 157.218 73.3516 160.021 68.3793 160.161C67.309 160.32 66.3179 160.818 65.5507 161.581C62.3922 163.839 59.4874 164.727 55.7582 161.454C52.6758 158.753 49.6569 155.264 44.7734 154.909C43.8536 154.754 43.0042 154.319 42.3413 153.662C41.6783 153.006 41.2341 152.161 41.0695 151.243C40.3465 146.855 40.8412 142.275 44.2152 139.434C47.2849 136.897 51.1791 134.284 55.8343 136.986C56.8711 137.453 58.0204 137.611 59.145 137.443C64.7754 136.861 70.4601 137.762 75.6349 140.056C79.25 141.641 83.0426 143.62 87.1271 140.588C90.5899 138.051 94.9534 138.318 98.9617 137.392C103.452 136.352 108.133 137.988 112.344 136.288C115.439 135.02 117.95 134.728 120.627 136.872C121.578 137.633 123.456 138.407 123.9 137.455C124.432 136.301 125.447 133.929 123.9 133.143C120.323 131.278 121.87 129.819 124.534 127.904C122.086 128.094 119.638 128.614 120.564 125.697C121.375 123.16 121.299 120.496 122.263 117.908C125.637 108.864 124.902 107.38 117.354 102.852C110.352 98.666 102.437 98.4123 94.7632 98.2093C86.4801 97.9937 78.121 99.8456 69.8507 99.4778C64.0158 99.2241 59.145 100.962 53.9824 102.839C48.0714 105.008 45.2934 108.687 46.5492 115.054C46.6459 115.903 46.59 116.762 46.3843 117.591C44.3801 128.792 40.3591 139.536 39.1922 150.952C38.3043 159.691 36.1352 168.253 43.2766 175.813C46.1433 178.832 49.6189 181.889 51.2932 185.441C53.5891 190.375 57.3818 187.889 60.3754 188.967C60.5105 189.013 60.6386 189.077 60.7559 189.157C62.5698 190.553 64.9418 191.403 66.6796 190.16C68.8994 188.574 66.6796 186.253 66.3117 184.325C65.538 179.796 66.1214 178.845 70.7132 178.477C72.6975 178.511 74.6683 178.81 76.5735 179.365C78.2098 179.669 79.9603 180.862 81.4951 179.771C84.032 177.944 86.6324 178.502 89.2073 179.378C91.4905 180.113 93.6088 180.354 95.6637 178.845C96.3487 178.35 97.0844 177.792 97.9216 178.655C98.2266 178.956 98.4316 179.344 98.5087 179.766C98.5858 180.188 98.5315 180.624 98.3529 181.014C97.8931 182.205 97.3593 183.365 96.7546 184.49C94.9915 187.762 95.854 189.563 99.152 191.593C102.222 193.483 106.268 190.959 108.742 194.498C109.312 195.309 109.934 193.94 110.01 193.052C110.15 190.87 108.501 189.779 107.181 188.536C105.862 187.293 103.82 186.798 103.934 183.957ZM69.6858 203.047C74.587 205.569 80.1926 206.373 85.6049 205.33C87.7486 204.899 90.9705 203.846 91.6935 206.244C92.4165 208.641 89.3215 209.947 87.2285 211.102C86.8381 211.258 86.4349 211.382 86.0235 211.47C78.565 213.918 72.3749 211.47 66.9967 206.396C64.5232 204.024 62.1004 201.817 58.3078 201.69C58.211 203.86 58.8257 206.002 60.0582 207.791C61.4291 209.949 62.09 212.482 61.9482 215.034C61.9482 219.803 63.889 223.165 68.5696 223.913C72.3509 224.495 76.1625 224.859 79.9857 225.004C84.7043 225.258 89.3849 222.29 94.2811 224.585C94.668 224.75 95.0873 224.824 95.5072 224.802C95.927 224.78 96.3363 224.662 96.7039 224.459C99.152 222.112 102.831 221.693 105 218.979C107.613 215.719 105.367 212.522 104.923 209.288C104.905 209.149 104.905 209.008 104.923 208.869C105.215 204.823 102.983 203.795 99.3676 203.795C95.7526 203.795 91.6935 204.557 87.9516 203.237C81.9264 201.056 75.8378 202.54 69.7239 203.047H69.6858Z" fill="#6F767E"/>
<path d="M218.958 336.894C215.837 333.926 216.281 332.163 220.606 331.719C219.998 329.651 216.129 326.937 221.532 326.379C221.926 326.379 222.573 325.187 222.547 325.11C220.01 322.688 223.524 320.823 223.118 318.641C222.864 317.309 223.207 316.688 224.653 317.106C224.957 317.208 225.668 317.677 225.465 317.03C223.981 311.957 229.676 310.916 230.615 307.352C231.718 303.141 235.688 300.883 237.274 297.078C237.502 296.558 238.073 296.037 238.01 295.568C237.477 290.951 240.75 289.822 244.098 288.541C248.639 286.803 252.419 288.452 255.895 291.078C260.195 294.249 264.254 297.344 265.624 303.331C266.487 307.073 270.343 309.978 271.383 314.037C273.666 322.916 277.306 331.427 279.095 340.459C279.095 340.738 279.323 340.991 279.387 341.258C280.921 348.475 279.894 349.769 272.626 349.769C265.358 349.769 258.115 349.617 250.872 349.845C247.599 349.947 246.572 348.577 246.635 345.672C246.699 341.981 246.635 338.29 246.762 334.598C246.762 332.962 246.686 331.592 244.466 331.212C244.466 337.097 244.466 342.704 244.466 348.31C244.466 349.579 243.198 349.706 242.158 349.706C237.084 349.706 231.968 349.706 226.809 349.706C226.137 349.706 225.325 349.706 225.071 348.818C224.818 347.93 225.515 347.473 226.112 347.22C230.513 345.33 231.35 341.004 232.454 337.211C234.689 329.92 237.816 322.933 241.764 316.409C242.766 314.747 241.346 313.694 241.612 312.464C241.98 310.79 238.251 307.999 242.881 307.39C242.881 307.39 242.741 306.388 242.754 305.868C242.817 302.912 240.991 300.54 240.369 297.737C238.109 299.383 236.373 301.647 235.371 304.257C235.042 305.018 234.483 305.982 234.699 306.642C236.741 312.984 233.316 318.235 231.274 323.779C229.118 329.664 227.177 335.639 224.995 341.537C224.116 343.776 223.055 345.939 221.824 348.006C221.571 348.614 221.116 349.116 220.536 349.427C219.956 349.739 219.287 349.842 218.64 349.718C214.772 348.387 211.03 350.289 207.224 349.921C203 349.515 198.7 349.833 194.438 349.833C190.176 349.833 185.623 349.896 181.221 349.833C179.953 349.833 177.948 350.619 177.555 348.78C177.439 347.92 177.619 347.047 178.066 346.304C178.514 345.562 179.202 344.994 180.016 344.695C183.745 344.048 185.255 340.89 187.525 338.784C190.604 336.074 194.445 334.381 198.523 333.939C200.338 333.707 202.008 332.829 203.229 331.465C208.226 326.138 211.385 319.466 215.19 313.441C217.347 310.016 219.44 306.248 221.812 302.773C222.661 301.504 223.27 300.414 225.148 301.276C227.025 302.139 225.744 303.509 225.566 304.485C224.206 311.296 222.079 317.93 219.224 324.261C217.854 327.482 216.687 330.818 215.419 334.066C214.924 335.334 214.328 336.856 215.114 337.681C215.901 338.505 217.334 337.617 218.958 336.894Z" fill="#6F767E"/>
<path d="M9.91624 349.756H8.2165C1.10047 349.756 1.03705 349.756 0.796048 342.387C0.719941 339.85 -1.04321 337.148 0.935579 334.598C1.77276 333.508 2.90168 331.554 4.13208 332.62C6.87194 335.03 9.34544 333.444 12.0092 333.051C13.6848 332.747 15.4131 332.954 16.9688 333.647C19.3409 334.751 21.8651 335.157 18.3768 338.277C16.601 339.863 16.36 343.122 17.1084 345.051C18.7827 349.148 17.5396 350.124 13.6962 349.782C12.4658 349.68 11.1847 349.756 9.91624 349.756Z" fill="#6F767E"/>
<path d="M36.1352 315.09C31.1755 312.324 25.9876 314.696 21.0406 313.923C20.4825 313.834 19.6199 313.517 19.4423 313.732C17.9075 315.584 15.9541 316.789 15.1296 313.732C14.4573 311.195 11.4257 307.758 15.9033 305.703C18.1612 304.676 17.0323 303.166 17.0449 301.758C17.0449 299.221 17.8694 298.257 20.3937 299.729C26.1017 303.077 31.8097 306.401 37.632 309.61C39.1034 310.434 41.4373 310.878 40.8792 312.819C40.3211 314.76 37.632 313.821 36.1352 315.09Z" fill="#6F767E"/>
</svg>
