<svg id="Layer_1" width="100%" height="100%" viewBox="0 0 350 350" fill="none" xmlns="http://www.w3.org/2000/svg">
<path d="M181.967 288.52L178.183 293.253C176.732 291.935 177.866 291.051 178.38 290.089C182.257 282.811 185.672 275.586 186.502 266.989C186.949 261.455 187.746 255.955 188.889 250.522C190.418 243.745 189.06 237.469 186.001 231.378C185.118 229.637 182.758 227.079 184.274 226.038C186.238 224.719 188.506 227.224 189.904 228.938C195.586 235.913 202.97 240.554 210.472 245.274C216.471 249.032 223.155 250.179 229.669 251.445C253.322 256.059 275.723 264.471 298.334 272.408C310.504 276.68 313.721 286.16 315.355 297.235C317.729 313.215 320.01 329.194 322.818 345.095C323.583 349.499 321.895 349.894 318.559 349.881C309.106 349.881 299.639 349.881 290.186 349.881H177.998C171.577 349.881 171.551 349.881 172.724 343.46C175.915 326.294 179.123 309.127 182.349 291.961C182.526 291.392 182.583 290.793 182.517 290.2C182.451 289.608 182.264 289.036 181.967 288.52Z" fill="#6F767E"/>
<path d="M147.067 179.733C149.519 175.435 154.978 174.921 157.878 171.124C158.63 170.148 160.212 169.898 160.515 168.329C160.726 167.01 161.636 167.01 162.414 167.722C165.169 170.359 165.868 168.223 167.134 166.074C168.189 164.281 168.545 161.987 170.957 160.879C172.671 160.102 172.395 157.781 171.366 156.594C169.56 154.511 168.835 151.94 167.595 149.633C166.053 146.719 164.062 146.007 161.082 146.996C160.871 148.446 163.376 148.064 162.862 149.435C162.348 150.806 160.832 150.266 159.764 150.226C158.287 150.16 157.127 150.609 157.707 152.138C159.025 156.028 156.613 157.412 153.831 158.902C148.85 161.446 143.198 162.368 137.666 161.539C142.545 158.269 148.043 159.719 151.761 156.344C152.512 155.658 153.501 155.236 154.253 154.564C154.647 154.222 154.902 153.747 154.97 153.23C155.038 152.712 154.914 152.188 154.622 151.756C153.646 149.818 152.921 151.677 152.275 151.953C145.577 154.88 138.787 157.03 131.377 154.894C130.56 154.669 129.465 154.445 129.228 155.685C128.991 156.924 129.017 158.467 130.547 159.139C132.076 159.811 133.566 160.233 135.148 160.787C129.268 163.925 128.767 164.162 126.657 162.541C123.899 160.545 121.512 158.082 119.603 155.263C118.76 153.944 119.181 151.993 117.428 151.11C116.69 150.727 116.874 150.147 117.599 149.883C122.161 148.222 118.588 146.614 117.336 145.691C114.936 143.924 114.488 143.7 116.676 140.417C118.475 137.663 120.859 135.339 123.657 133.609C126.455 131.88 129.599 130.788 132.867 130.41C139.09 129.474 146.184 127.536 153.132 133.113C151.405 131.2 150.21 128.868 149.664 126.349C149.322 124.279 148.346 122.394 145.946 121.932C144.852 121.721 143.837 121.022 143.889 119.915C144.061 116.039 141.121 114.786 138.444 114.39C134.7 113.85 132.208 109.539 127.897 111.239C123.585 112.94 118.786 115.63 114.237 111.239C110.598 113.547 106.88 109.196 102.714 111.793C100.38 113.243 96.3589 110.936 92.865 111.925C87.1824 113.547 83.8071 116.751 83.082 122.723C82.2513 129.5 81.5657 136.29 80.8142 143.08C87.1692 136.607 94.9218 134.84 103.307 136.778C107.183 137.675 109.029 142.052 111.798 144.689C112.668 145.546 110.915 149.211 110.176 151.545C109.86 152.547 109.135 153.483 110.255 154.3C113.618 156.726 111.574 158.889 109.794 160.774C107.724 162.936 106.168 165.745 102.371 167.182C103.294 163.635 107.83 162.277 106.142 158.137C103.79 160.142 100.98 161.538 97.9609 162.2C94.9418 162.862 91.806 162.771 88.8305 161.934C90.7818 159.68 92.6936 159.482 95.1723 159.297C93.1023 158.559 91.7443 158.256 90.2017 159.086C89.1205 159.666 87.6702 160.721 86.6023 159.337C86.1204 158.666 85.8513 157.867 85.8302 157.041C85.809 156.216 86.0367 155.403 86.4836 154.709C87.5384 152.982 88.8305 151.096 91.0191 150.754C94.012 150.266 95.3964 146.798 98.9299 147.418C93.2473 143.634 85.442 147.853 84.4268 154.103C83.617 157.979 83.1406 161.918 83.0029 165.876C83.0029 167.023 82.2645 168.421 81.2757 167.828C78.085 165.916 77.439 168.026 77.3203 170.465C75.0657 169.937 75.6458 168.461 75.3162 167.445C75.0789 166.747 74.4592 165.956 74.6174 165.389C75.6327 162.027 66.7067 166.206 70.9126 160.339C72.7189 157.807 69.8974 155.197 69.7787 152.428C69.66 149.659 69.0667 146.719 69.0799 143.766C69.1538 140.224 68.8265 136.686 68.1042 133.218C66.2716 125.11 69.5018 118.53 73.0221 111.885C74.5779 108.958 75.4085 106.361 74.1428 102.788C72.4552 98.0679 75.1844 93.7302 78.8893 91.3042C87.8713 85.1505 97.3483 79.7526 107.223 75.1662C115.529 71.4877 124.165 71.4218 132.709 72.9117C143.63 74.6041 153.945 79.0357 162.691 85.793C165.341 87.9022 167.657 90.4004 169.56 93.2028C175.809 102.432 183.166 111.015 184.669 122.631C185.434 128.603 186.146 134.589 186.753 140.575C186.924 142.263 186.95 144.148 188.664 144.741C197.063 147.629 195.705 154.564 195.56 160.972C195.415 167.379 192.369 172.126 188.374 176.675C186.885 178.375 185.843 179.127 184.419 176.82C183.852 175.897 183.101 174.921 181.967 175.686C181.456 176.004 181.061 176.479 180.84 177.039C180.619 177.599 180.584 178.216 180.74 178.797C181.141 180.54 182.193 182.064 183.681 183.056C185.144 183.887 186.225 184.533 185.434 186.392C184.762 187.947 183.918 189.292 181.94 189.292C181.062 189.351 180.181 189.351 179.303 189.292C174.293 188.58 173.463 188.989 173.581 194.566C173.792 203.94 173.924 213.473 179.448 221.687C182.494 226.209 181.808 230.6 179.752 235.083C175.163 245.103 167.648 252.776 159.632 260.041C155.835 263.482 151.392 266.172 148.254 270.391C146.724 272.448 143.982 273.028 141.595 273.502C137.521 274.373 135.834 276.561 136.19 280.675C136.414 283.312 136.111 285.949 136.954 288.586C137.244 289.469 137.442 290.788 136.335 291.368C135.53 291.803 134.647 291.236 133.896 290.722C125.167 284.762 115.437 280.293 107.21 273.582C103.373 270.47 100.13 267.293 101.936 261.715C102.015 261.439 102.74 260.924 101.659 260.463C98.8376 259.25 98.7321 259.026 100.341 256.837C103.65 252.341 105.272 247.12 106.801 241.899C107.655 239.228 107.59 236.348 106.614 233.719C105.639 231.09 103.811 228.864 101.422 227.396C97.1243 224.506 93.6093 220.597 91.1905 216.018C91.9294 216.022 92.6538 216.224 93.2888 216.601C93.9238 216.979 94.4466 217.519 94.8031 218.167C95.3622 219.211 96.1923 220.085 97.2062 220.698C98.2201 221.31 99.3803 221.638 100.565 221.647C100.987 221.647 101.606 221.647 101.817 221.937C105.68 226.578 111.047 225.26 116.044 225.893C117.955 226.104 120.236 225.893 121.067 224.917C123.822 221.806 128.424 223.032 131.087 220.092C131.301 219.887 131.562 219.737 131.847 219.657C132.132 219.576 132.433 219.567 132.722 219.63C135.438 220.949 137.851 221.278 139.697 218.246C141.094 215.952 143.085 214.409 144.008 211.297C144.826 208.542 144.351 204.863 146.988 202.266C148.734 200.47 149.854 198.158 150.179 195.674C150.319 194.804 150.666 193.981 151.192 193.274C151.717 192.567 152.405 191.998 153.198 191.613C154.938 190.624 158.155 189.925 154.384 186.787C152.169 184.941 151.312 181.447 147.884 180.683L147.067 179.733Z" fill="#6F767E"/>
<path d="M98.6398 253.04C95.3305 262.757 97.6774 271.182 100.433 279.08C102.951 286.292 102.2 293.055 101.395 300.175C100.828 304.987 99.9715 309.787 99.866 314.612C99.6419 324.777 98.2575 334.916 98.9299 345.095C99.1672 348.694 97.9147 350.013 94.1834 350C64.2983 349.877 34.4351 349.877 4.59392 350C0.717639 350 -0.455785 349.05 0.150707 344.844C1.35051 336.565 1.82515 328.179 2.43164 319.794C2.81677 312.899 3.73363 306.045 5.17405 299.292C7.17811 290.616 13.7968 286.872 21.167 283.681C40.7593 275.217 60.3121 266.673 80.6824 260.173C86.4836 258.274 92.509 257.048 98.6398 253.04Z" fill="#6F767E"/>
<path d="M147.792 180.498C146.579 183.689 147.792 186.853 148.346 189.886C148.992 193.92 147.489 196.649 144.1 197.48C139.235 198.667 136.097 201.659 133.381 205.391C131.575 207.869 129.597 209.148 126.38 208.502C122.794 207.777 118.957 208.937 115.437 207.276C114.58 206.867 113.117 207.276 113.011 205.892C112.919 204.679 114.33 204.402 115.002 203.743C116.901 201.976 119.445 202.49 121.687 202.147C122.777 202.095 123.819 201.676 124.642 200.958C125.465 200.24 126.022 199.265 126.222 198.192C119.814 199.59 113.275 198.983 107.223 201.686C105.39 202.625 103.628 203.696 101.949 204.89C99.9056 206.208 97.5192 206.208 97.7169 203.136C97.8165 200.977 97.7636 198.814 97.5587 196.663C97.3346 193.841 98.2048 191.745 102.002 192.918C105.799 194.092 109.689 194.632 113.341 192.232C116.347 190.281 120.131 192.971 123.11 190.65C123.546 190.308 124.271 190.347 124.429 189.543C124.007 188.119 122.82 188.369 122.003 188.884C117.942 191.375 113.209 189.358 109.029 190.927C108.67 191.045 108.28 191.022 107.937 190.863C107.595 190.704 107.325 190.42 107.183 190.07C106.656 188.844 107.843 188.554 108.502 188.198C109.722 187.601 110.977 187.077 112.26 186.629C111.961 186.043 111.543 185.527 111.032 185.113C110.521 184.7 109.928 184.399 109.293 184.229C107.249 183.557 104.903 182.568 105.338 180.274C105.773 177.98 108.344 176.635 110.374 176.543C114.054 176.431 117.629 175.294 120.698 173.26C122.702 171.941 124.653 173.339 126.644 173.853C128.055 174.222 129.452 175.066 130.718 173.669C130.842 173.527 130.936 173.362 130.996 173.184C131.056 173.006 131.079 172.817 131.066 172.63C131.052 172.442 131.002 172.259 130.917 172.091C130.833 171.923 130.716 171.774 130.573 171.651C129.4 170.623 128.226 169.014 126.525 169.542C124.825 170.069 123.256 171.084 122.939 168.527C122.623 165.969 124.732 165.547 126.789 165.639C133.144 165.903 136.018 171.295 140.092 174.868C142.111 176.894 144.49 178.526 147.107 179.681L147.792 180.498Z" fill="#6F767E"/>
<path d="M114.791 302.258C111.095 296.731 108.313 290.646 106.551 284.235C106.29 283.211 106.432 282.126 106.947 281.204C107.462 280.282 108.311 279.592 109.319 279.277C111.323 278.42 112.418 279.277 113.631 280.939C115.577 283.525 117.668 285.999 119.893 288.348C123.045 291.921 122.768 295.349 118.825 298.013C117.204 299.12 115.582 300.004 114.791 302.258Z" fill="#6F767E"/>
</svg>
